<mxfile host="app.diagrams.net" modified="2023-10-02T08:38:04.976Z" agent="Mozilla/5.0 (Windows NT 10.0; Win64; x64) AppleWebKit/537.36 (KHTML, like Gecko) Chrome/117.0.0.0 Safari/537.36" etag="v7oFH-cdGaP2QAiM2Xad" version="21.8.2" type="device">
  <diagram id="R2lEEEUBdFMjLlhIrx00" name="Page-1">
    <mxGraphModel dx="1591" dy="857" grid="1" gridSize="10" guides="1" tooltips="1" connect="1" arrows="1" fold="1" page="1" pageScale="1" pageWidth="850" pageHeight="1100" math="0" shadow="0" extFonts="Permanent Marker^https://fonts.googleapis.com/css?family=Permanent+Marker">
      <root>
        <mxCell id="0" />
        <mxCell id="1" parent="0" />
        <mxCell id="-lD7cXwF7x9B-krOe4Ea-15" style="edgeStyle=orthogonalEdgeStyle;rounded=0;orthogonalLoop=1;jettySize=auto;html=1;entryX=0;entryY=0.5;entryDx=0;entryDy=0;endArrow=none;endFill=0;" edge="1" parent="1" source="-lD7cXwF7x9B-krOe4Ea-11" target="-lD7cXwF7x9B-krOe4Ea-12">
          <mxGeometry relative="1" as="geometry" />
        </mxCell>
        <mxCell id="-lD7cXwF7x9B-krOe4Ea-11" value="Tienda" style="rounded=0;whiteSpace=wrap;html=1;" vertex="1" parent="1">
          <mxGeometry x="330" y="210" width="120" height="60" as="geometry" />
        </mxCell>
        <mxCell id="-lD7cXwF7x9B-krOe4Ea-12" value="Administra" style="rhombus;whiteSpace=wrap;html=1;" vertex="1" parent="1">
          <mxGeometry x="570" y="200" width="80" height="80" as="geometry" />
        </mxCell>
        <mxCell id="-lD7cXwF7x9B-krOe4Ea-16" style="edgeStyle=orthogonalEdgeStyle;rounded=0;orthogonalLoop=1;jettySize=auto;html=1;exitX=0;exitY=0.5;exitDx=0;exitDy=0;entryX=1;entryY=0.5;entryDx=0;entryDy=0;endArrow=none;endFill=0;" edge="1" parent="1" source="-lD7cXwF7x9B-krOe4Ea-13" target="-lD7cXwF7x9B-krOe4Ea-12">
          <mxGeometry relative="1" as="geometry" />
        </mxCell>
        <mxCell id="-lD7cXwF7x9B-krOe4Ea-13" value="Trabajador" style="rounded=0;whiteSpace=wrap;html=1;" vertex="1" parent="1">
          <mxGeometry x="780" y="210" width="120" height="60" as="geometry" />
        </mxCell>
        <mxCell id="-lD7cXwF7x9B-krOe4Ea-20" value="&lt;b&gt;&lt;u&gt;CIF&lt;/u&gt;&lt;/b&gt;" style="ellipse;whiteSpace=wrap;html=1;" vertex="1" parent="1">
          <mxGeometry x="220" y="90" width="120" height="40" as="geometry" />
        </mxCell>
        <mxCell id="-lD7cXwF7x9B-krOe4Ea-21" value="Nombre&amp;nbsp;&lt;br&gt;Completo" style="ellipse;whiteSpace=wrap;html=1;" vertex="1" parent="1">
          <mxGeometry x="1060" y="300" width="120" height="40" as="geometry" />
        </mxCell>
        <mxCell id="-lD7cXwF7x9B-krOe4Ea-22" value="&lt;u&gt;DNI&lt;/u&gt;" style="ellipse;whiteSpace=wrap;html=1;" vertex="1" parent="1">
          <mxGeometry x="1060" y="220" width="120" height="40" as="geometry" />
        </mxCell>
        <mxCell id="-lD7cXwF7x9B-krOe4Ea-23" value="Nombre" style="ellipse;whiteSpace=wrap;html=1;" vertex="1" parent="1">
          <mxGeometry x="110" y="170" width="120" height="40" as="geometry" />
        </mxCell>
        <mxCell id="-lD7cXwF7x9B-krOe4Ea-24" value="Direccion" style="ellipse;whiteSpace=wrap;html=1;" vertex="1" parent="1">
          <mxGeometry x="110" y="280" width="120" height="40" as="geometry" />
        </mxCell>
        <mxCell id="-lD7cXwF7x9B-krOe4Ea-25" value="Metros cuadrados" style="ellipse;whiteSpace=wrap;html=1;" vertex="1" parent="1">
          <mxGeometry x="220" y="380" width="120" height="40" as="geometry" />
        </mxCell>
        <mxCell id="-lD7cXwF7x9B-krOe4Ea-34" value="&lt;u&gt;&lt;b&gt;Id_trabajador&lt;/b&gt;&lt;/u&gt;" style="ellipse;whiteSpace=wrap;html=1;" vertex="1" parent="1">
          <mxGeometry x="1060" y="120" width="120" height="40" as="geometry" />
        </mxCell>
        <mxCell id="-lD7cXwF7x9B-krOe4Ea-35" value="Nombre" style="ellipse;whiteSpace=wrap;html=1;" vertex="1" parent="1">
          <mxGeometry x="950" y="390" width="90" height="30" as="geometry" />
        </mxCell>
        <mxCell id="-lD7cXwF7x9B-krOe4Ea-36" value="Ap1" style="ellipse;whiteSpace=wrap;html=1;" vertex="1" parent="1">
          <mxGeometry x="1075" y="390" width="90" height="30" as="geometry" />
        </mxCell>
        <mxCell id="-lD7cXwF7x9B-krOe4Ea-37" value="Ap2" style="ellipse;whiteSpace=wrap;html=1;" vertex="1" parent="1">
          <mxGeometry x="1180" y="400" width="90" height="30" as="geometry" />
        </mxCell>
        <mxCell id="-lD7cXwF7x9B-krOe4Ea-39" value="" style="endArrow=none;html=1;rounded=0;exitX=0.5;exitY=0;exitDx=0;exitDy=0;" edge="1" parent="1" source="-lD7cXwF7x9B-krOe4Ea-35" target="-lD7cXwF7x9B-krOe4Ea-21">
          <mxGeometry width="50" height="50" relative="1" as="geometry">
            <mxPoint x="830" y="250" as="sourcePoint" />
            <mxPoint x="880" y="200" as="targetPoint" />
          </mxGeometry>
        </mxCell>
        <mxCell id="-lD7cXwF7x9B-krOe4Ea-40" value="" style="endArrow=none;html=1;rounded=0;entryX=0.5;entryY=1;entryDx=0;entryDy=0;" edge="1" parent="1" source="-lD7cXwF7x9B-krOe4Ea-36" target="-lD7cXwF7x9B-krOe4Ea-21">
          <mxGeometry width="50" height="50" relative="1" as="geometry">
            <mxPoint x="1005" y="400" as="sourcePoint" />
            <mxPoint x="1111" y="337" as="targetPoint" />
          </mxGeometry>
        </mxCell>
        <mxCell id="-lD7cXwF7x9B-krOe4Ea-41" value="" style="endArrow=none;html=1;rounded=0;entryX=1;entryY=1;entryDx=0;entryDy=0;exitX=0.5;exitY=0;exitDx=0;exitDy=0;" edge="1" parent="1" source="-lD7cXwF7x9B-krOe4Ea-37" target="-lD7cXwF7x9B-krOe4Ea-21">
          <mxGeometry width="50" height="50" relative="1" as="geometry">
            <mxPoint x="1132" y="400" as="sourcePoint" />
            <mxPoint x="1140" y="340" as="targetPoint" />
          </mxGeometry>
        </mxCell>
        <mxCell id="-lD7cXwF7x9B-krOe4Ea-42" value="" style="endArrow=none;html=1;entryX=0.5;entryY=0;entryDx=0;entryDy=0;exitX=0.75;exitY=1;exitDx=0;exitDy=0;" edge="1" parent="1" source="-lD7cXwF7x9B-krOe4Ea-13" target="-lD7cXwF7x9B-krOe4Ea-21">
          <mxGeometry width="50" height="50" relative="1" as="geometry">
            <mxPoint x="660" y="260" as="sourcePoint" />
            <mxPoint x="710" y="210" as="targetPoint" />
          </mxGeometry>
        </mxCell>
        <mxCell id="-lD7cXwF7x9B-krOe4Ea-43" value="" style="endArrow=none;html=1;entryX=0;entryY=0.5;entryDx=0;entryDy=0;exitX=1;exitY=0.5;exitDx=0;exitDy=0;" edge="1" parent="1" source="-lD7cXwF7x9B-krOe4Ea-13" target="-lD7cXwF7x9B-krOe4Ea-22">
          <mxGeometry width="50" height="50" relative="1" as="geometry">
            <mxPoint x="820" y="280" as="sourcePoint" />
            <mxPoint x="910" y="330" as="targetPoint" />
          </mxGeometry>
        </mxCell>
        <mxCell id="-lD7cXwF7x9B-krOe4Ea-44" value="" style="endArrow=none;html=1;rounded=0;entryX=0;entryY=0.5;entryDx=0;entryDy=0;" edge="1" parent="1" source="-lD7cXwF7x9B-krOe4Ea-13" target="-lD7cXwF7x9B-krOe4Ea-34">
          <mxGeometry width="50" height="50" relative="1" as="geometry">
            <mxPoint x="660" y="260" as="sourcePoint" />
            <mxPoint x="710" y="210" as="targetPoint" />
          </mxGeometry>
        </mxCell>
        <mxCell id="-lD7cXwF7x9B-krOe4Ea-47" value="" style="endArrow=none;html=1;rounded=0;exitX=0.5;exitY=0;exitDx=0;exitDy=0;entryX=0;entryY=0.5;entryDx=0;entryDy=0;" edge="1" parent="1" target="-lD7cXwF7x9B-krOe4Ea-11">
          <mxGeometry width="50" height="50" relative="1" as="geometry">
            <mxPoint x="230" y="300" as="sourcePoint" />
            <mxPoint x="370" y="190" as="targetPoint" />
          </mxGeometry>
        </mxCell>
        <mxCell id="-lD7cXwF7x9B-krOe4Ea-48" value="" style="endArrow=none;html=1;rounded=0;exitX=0.5;exitY=0;exitDx=0;exitDy=0;entryX=0;entryY=0;entryDx=0;entryDy=0;" edge="1" parent="1" target="-lD7cXwF7x9B-krOe4Ea-11">
          <mxGeometry width="50" height="50" relative="1" as="geometry">
            <mxPoint x="230" y="190" as="sourcePoint" />
            <mxPoint x="370" y="130" as="targetPoint" />
          </mxGeometry>
        </mxCell>
        <mxCell id="-lD7cXwF7x9B-krOe4Ea-49" value="" style="endArrow=none;html=1;rounded=0;entryX=0.25;entryY=0;entryDx=0;entryDy=0;" edge="1" parent="1" source="-lD7cXwF7x9B-krOe4Ea-20" target="-lD7cXwF7x9B-krOe4Ea-11">
          <mxGeometry width="50" height="50" relative="1" as="geometry">
            <mxPoint x="240" y="200" as="sourcePoint" />
            <mxPoint x="380" y="220" as="targetPoint" />
          </mxGeometry>
        </mxCell>
        <mxCell id="-lD7cXwF7x9B-krOe4Ea-50" value="" style="endArrow=none;dashed=1;html=1;rounded=0;entryX=0.345;entryY=0.988;entryDx=0;entryDy=0;entryPerimeter=0;exitX=0.5;exitY=0;exitDx=0;exitDy=0;" edge="1" parent="1" source="-lD7cXwF7x9B-krOe4Ea-25" target="-lD7cXwF7x9B-krOe4Ea-11">
          <mxGeometry width="50" height="50" relative="1" as="geometry">
            <mxPoint x="750" y="380" as="sourcePoint" />
            <mxPoint x="800" y="330" as="targetPoint" />
          </mxGeometry>
        </mxCell>
        <mxCell id="-lD7cXwF7x9B-krOe4Ea-51" value="(0,1)" style="text;html=1;strokeColor=none;fillColor=none;align=center;verticalAlign=middle;whiteSpace=wrap;rounded=0;" vertex="1" parent="1">
          <mxGeometry x="480" y="200" width="60" height="30" as="geometry" />
        </mxCell>
        <mxCell id="-lD7cXwF7x9B-krOe4Ea-52" value="(1,1)" style="text;html=1;strokeColor=none;fillColor=none;align=center;verticalAlign=middle;whiteSpace=wrap;rounded=0;" vertex="1" parent="1">
          <mxGeometry x="670" y="200" width="60" height="30" as="geometry" />
        </mxCell>
      </root>
    </mxGraphModel>
  </diagram>
</mxfile>
